<svg width="700" height="700" viewBox="0 0 700 700" fill="none" xmlns="http://www.w3.org/2000/svg">
<g opacity="0.2">
<path d="M644.071 490.672L644.071 7.69871" stroke="#332B29"/>
<path d="M595.841 490.672L595.841 7.69871" stroke="#332B29"/>
<path d="M547.61 490.672L547.61 7.69871" stroke="#332B29"/>
<path d="M499.38 490.672L499.38 7.69871" stroke="#332B29"/>
<path d="M450.48 490.672L450.48 7.69871" stroke="#332B29"/>
<path d="M402.25 490.672L402.25 7.69871" stroke="#332B29"/>
<path d="M354.019 490.672L354.019 7.69871" stroke="#332B29"/>
<path d="M305.789 490.672L305.789 7.69871" stroke="#332B29"/>
<path d="M257.559 490.672L257.559 7.69871" stroke="#332B29"/>
<path d="M209.328 442.442L692.301 442.442" stroke="#332B29"/>
<path d="M209.328 394.211L692.301 394.211" stroke="#332B29"/>
<path d="M209.328 345.981L692.301 345.981" stroke="#332B29"/>
<path d="M209.328 297.751L692.301 297.751" stroke="#332B29"/>
<path d="M209.328 248.851L692.301 248.851" stroke="#332B29"/>
<path d="M209.328 200.62L692.301 200.62" stroke="#332B29"/>
<path d="M209.328 152.39L692.301 152.39" stroke="#332B29"/>
<path d="M209.328 104.159L692.301 104.159" stroke="#332B29"/>
<path d="M209.328 55.9292L692.301 55.9292" stroke="#332B29"/>
</g>
<path d="M27.6616 575.064C27.6616 522.45 70.4004 479.794 123.126 479.794C175.853 479.794 218.591 522.45 218.591 575.064C218.591 627.677 175.853 670.334 123.126 670.334C70.4004 670.334 27.6616 627.677 27.6616 575.064Z" stroke="#332B29" stroke-width="2.40736" stroke-linecap="round"/>
<path d="M27.6616 343.562C27.6616 290.956 70.4002 248.306 123.126 248.306C175.853 248.306 218.591 290.956 218.591 343.562C218.591 396.169 175.853 438.819 123.126 438.819C70.4002 438.819 27.6616 396.169 27.6616 343.562Z" stroke="#332B29" stroke-width="2.40736" stroke-linecap="round"/>
<path d="M27.6616 103.504C27.6616 50.8899 70.4003 8.23382 123.126 8.23382C175.853 8.23381 218.591 50.8899 218.591 103.504C218.591 156.118 175.853 198.774 123.126 198.774C70.4003 198.774 27.6616 156.118 27.6616 103.504Z" stroke="#332B29" stroke-width="2.40736" stroke-linecap="round"/>
<path d="M258.091 343.563C258.091 290.956 300.824 248.306 353.543 248.306C406.262 248.306 448.995 290.956 448.995 343.562C448.995 396.169 406.262 438.819 353.543 438.819C300.824 438.819 258.091 396.169 258.091 343.563Z" fill="#FF6656" stroke="#332B29" stroke-width="2.40736" stroke-linecap="round"/>
<path d="M258.373 103.477C258.373 50.8627 301.106 8.20672 353.824 8.20672C406.543 8.20671 449.276 50.8626 449.276 103.477C449.276 156.091 406.543 198.747 353.824 198.747C301.106 198.747 258.373 156.091 258.373 103.477Z" fill="#A1FD59" stroke="#332B29" stroke-width="2.40736" stroke-linecap="round"/>
<path d="M500.168 343.288C500.168 290.675 542.907 248.018 595.633 248.018C648.359 248.018 691.098 290.675 691.098 343.288C691.098 395.902 648.359 438.558 595.633 438.558C542.907 438.558 500.168 395.902 500.168 343.288Z" fill="#007D98" stroke="#332B29" stroke-width="2.40736" stroke-linecap="round"/>
<rect opacity="0.5" x="692.971" y="692.971" width="685.942" height="685.942" transform="rotate(180 692.971 692.971)" stroke="#332B29" stroke-width="2"/>
<rect x="699" y="699" width="12.0576" height="12.0576" transform="rotate(180 699 699)" fill="#332B29" stroke="#332B29" stroke-width="2"/>
<rect x="13.0576" y="699" width="12.0576" height="12.0576" transform="rotate(180 13.0576 699)" fill="#332B29" stroke="#332B29" stroke-width="2"/>
<rect x="699" y="13.0576" width="12.0576" height="12.0576" transform="rotate(180 699 13.0576)" fill="#332B29" stroke="#332B29" stroke-width="2"/>
<rect x="13.0576" y="13.0576" width="12.0576" height="12.0576" transform="rotate(180 13.0576 13.0576)" fill="#332B29" stroke="#332B29" stroke-width="2"/>
</svg>
